<svg width="1320" height="800" viewBox="0 0 1320 800" xmlns="http://www.w3.org/2000/svg" font-family="Arial, Helvetica, sans-serif">
<rect x="0" y="0" width="1320" height="800" fill="#ffffff"/>
<defs>
<marker id="arr" viewBox="0 0 10 10" refX="8" refY="5" markerWidth="6" markerHeight="6" orient="auto-start-reverse">
<path d="M2 1L8 5L2 9" fill="none" stroke="#1a1a1a" stroke-width="1.5" stroke-linecap="round" stroke-linejoin="round"/>
</marker>
</defs>
<text x="30" y="26" font-size="16" font-weight="bold" fill="#1a1a1a">P&amp;ID Example (Detailed) — Pump Transfer System with Safety &amp; Utility Systems</text>

<!-- Flare header -->
<line x1="380" y1="70" x2="1170" y2="70" stroke="#1a1a1a" stroke-width="2"/>
<line x1="1170" y1="20" x2="1170" y2="70" stroke="#1a1a1a" stroke-width="2"/>
<polygon points="1170,15 1160,32 1180,32" fill="#f6c9b8" stroke="#b5432a" stroke-width="1"/>
<text x="1120" y="12" font-size="11" fill="#1a1a1a">Flare stack</text>

<!-- N2 supply header -->
<line x1="30" y1="130" x2="330" y2="130" stroke="#1a1a1a" stroke-width="1.5"/>
<text x="35" y="118" font-size="11" fill="#1a1a1a">N2 supply header (from utility station)</text>

<!-- ESDV-110 -->
<line x1="330" y1="130" x2="330" y2="140" stroke="#1a1a1a" stroke-width="1.5"/>
<polygon points="315,140 345,140 330,155" fill="#f6c9b8" stroke="#b5432a" stroke-width="1"/>
<polygon points="315,170 345,170 330,155" fill="#f6c9b8" stroke="#b5432a" stroke-width="1"/>
<line x1="330" y1="170" x2="330" y2="180" stroke="#1a1a1a" stroke-width="1.5"/>
<text x="345" y="158" font-size="11" font-weight="bold" fill="#7a2a15">ESDV-110</text>
<text x="345" y="172" font-size="10" fill="#7a2a15">Fail-closed</text>

<!-- PSV-101 -->
<line x1="380" y1="70" x2="380" y2="110" stroke="#1a1a1a" stroke-width="1.5"/>
<polygon points="368,140 392,140 380,110" fill="#f6c9b8" stroke="#b5432a" stroke-width="1"/>
<line x1="380" y1="140" x2="380" y2="180" stroke="#1a1a1a" stroke-width="1.5"/>
<text x="396" y="122" font-size="11" font-weight="bold" fill="#7a2a15">PSV-101</text>
<text x="396" y="135" font-size="10" fill="#7a2a15">Set 250 psig</text>

<!-- BDV-101 -->
<line x1="430" y1="70" x2="430" y2="100" stroke="#1a1a1a" stroke-width="1.5"/>
<rect x="420" y="100" width="20" height="18" fill="#f6c9b8" stroke="#b5432a" stroke-width="1"/>
<line x1="430" y1="118" x2="430" y2="125" stroke="#1a1a1a" stroke-width="1.5"/>
<polygon points="415,125 445,125 430,140" fill="#f6c9b8" stroke="#b5432a" stroke-width="1"/>
<polygon points="415,155 445,155 430,140" fill="#f6c9b8" stroke="#b5432a" stroke-width="1"/>
<line x1="430" y1="155" x2="430" y2="180" stroke="#1a1a1a" stroke-width="1.5"/>
<text x="446" y="118" font-size="11" font-weight="bold" fill="#7a2a15">BDV-101</text>
<text x="446" y="145" font-size="10" fill="#7a2a15">Fail-open, ESD dep.</text>

<!-- V-100 -->
<rect x="260" y="180" width="300" height="150" rx="50" fill="#eaf3fb" stroke="#1a5f9e" stroke-width="1.5"/>
<text x="410" y="243" font-size="15" font-weight="bold" text-anchor="middle" fill="#0c447c">V-100</text>
<text x="410" y="262" font-size="12" text-anchor="middle" fill="#0c447c">Suction Drum</text>
<text x="410" y="279" font-size="11" text-anchor="middle" fill="#0c447c">Design: 150 psig / 200°F</text>

<!-- PT-3001 -->
<circle cx="480" cy="150" r="14" fill="#f9dfa3" stroke="#8a5a12" stroke-width="1"/>
<line x1="480" y1="164" x2="480" y2="180" stroke="#1a1a1a" stroke-width="1.5"/>
<text x="498" y="154" font-size="11" fill="#1a1a1a">PT-3001</text>

<!-- LT-3005 bridle -->
<line x1="560" y1="200" x2="590" y2="200" stroke="#1a1a1a" stroke-width="1.5"/>
<line x1="560" y1="310" x2="590" y2="310" stroke="#1a1a1a" stroke-width="1.5"/>
<line x1="590" y1="200" x2="590" y2="310" stroke="#1a1a1a" stroke-width="1.5"/>
<circle cx="590" cy="255" r="14" fill="#f9dfa3" stroke="#8a5a12" stroke-width="1"/>
<text x="608" y="259" font-size="11" fill="#1a1a1a">LT-3005</text>

<!-- Manway -->
<circle cx="270" cy="255" r="10" fill="#eaf3fb" stroke="#1a5f9e" stroke-width="1.5"/>
<text x="225" y="259" font-size="11" text-anchor="end" fill="#1a1a1a">MW1 (Manway)</text>

<!-- Drain -->
<line x1="330" y1="330" x2="330" y2="352" stroke="#1a1a1a" stroke-width="1.5"/>
<rect x="316" y="352" width="28" height="16" fill="#d8d6cc" stroke="#5f5e5a" stroke-width="1"/>
<line x1="330" y1="368" x2="330" y2="382" stroke="#1a1a1a" stroke-width="1.5"/>
<text x="345" y="380" font-size="10" fill="#1a1a1a">To closed drain</text>

<!-- Outlet to pumps -->
<line x1="460" y1="330" x2="460" y2="400" stroke="#1a1a1a" stroke-width="1.5"/>
<line x1="460" y1="400" x2="300" y2="400" stroke="#1a1a1a" stroke-width="1.5"/>
<line x1="300" y1="400" x2="300" y2="500" stroke="#1a1a1a" stroke-width="1.5"/>
<text x="240" y="393" font-size="11" fill="#1a1a1a">8"-P-1015-A1A</text>

<!-- Pump row A (duty) -->
<line x1="300" y1="430" x2="335" y2="430" stroke="#1a1a1a" stroke-width="1.5"/>
<rect x="335" y="421" width="28" height="18" fill="#d8d6cc" stroke="#5f5e5a" stroke-width="1"/>
<text x="349" y="415" font-size="10" text-anchor="middle" fill="#1a1a1a">BV-101A</text>
<line x1="363" y1="430" x2="390" y2="430" stroke="#1a1a1a" stroke-width="1.5"/>
<circle cx="420" cy="430" r="28" fill="#bfe8db" stroke="#0f6e56" stroke-width="1.5"/>
<text x="420" y="426" font-size="12" font-weight="bold" text-anchor="middle" fill="#085041">P-101A</text>
<text x="420" y="440" font-size="10" text-anchor="middle" fill="#085041">Duty</text>
<line x1="448" y1="430" x2="475" y2="430" stroke="#1a1a1a" stroke-width="1.5"/>
<rect x="475" y="421" width="28" height="18" fill="#cfe0f2" stroke="#185fa5" stroke-width="1"/>
<text x="489" y="415" font-size="10" text-anchor="middle" fill="#1a1a1a">CV-101A</text>
<line x1="503" y1="430" x2="530" y2="430" stroke="#1a1a1a" stroke-width="1.5"/>
<rect x="530" y="421" width="28" height="18" fill="#d8d6cc" stroke="#5f5e5a" stroke-width="1"/>
<text x="544" y="415" font-size="10" text-anchor="middle" fill="#1a1a1a">BV-102A</text>
<line x1="558" y1="430" x2="600" y2="430" stroke="#1a1a1a" stroke-width="1.5"/>

<!-- Pump row B (spare) -->
<line x1="300" y1="500" x2="335" y2="500" stroke="#1a1a1a" stroke-width="1.5"/>
<rect x="335" y="491" width="28" height="18" fill="#d8d6cc" stroke="#5f5e5a" stroke-width="1"/>
<text x="349" y="485" font-size="10" text-anchor="middle" fill="#1a1a1a">BV-101B</text>
<line x1="363" y1="500" x2="390" y2="500" stroke="#1a1a1a" stroke-width="1.5"/>
<circle cx="420" cy="500" r="28" fill="#bfe8db" stroke="#0f6e56" stroke-width="1.5"/>
<text x="420" y="496" font-size="12" font-weight="bold" text-anchor="middle" fill="#085041">P-101B</text>
<text x="420" y="510" font-size="10" text-anchor="middle" fill="#085041">Spare</text>
<line x1="448" y1="500" x2="475" y2="500" stroke="#1a1a1a" stroke-width="1.5"/>
<rect x="475" y="491" width="28" height="18" fill="#cfe0f2" stroke="#185fa5" stroke-width="1"/>
<text x="489" y="485" font-size="10" text-anchor="middle" fill="#1a1a1a">CV-101B</text>
<line x1="503" y1="500" x2="530" y2="500" stroke="#1a1a1a" stroke-width="1.5"/>
<rect x="530" y="491" width="28" height="18" fill="#d8d6cc" stroke="#5f5e5a" stroke-width="1"/>
<text x="544" y="485" font-size="10" text-anchor="middle" fill="#1a1a1a">BV-102B</text>
<line x1="558" y1="500" x2="600" y2="500" stroke="#1a1a1a" stroke-width="1.5"/>

<!-- Common discharge header -->
<line x1="600" y1="430" x2="600" y2="500" stroke="#1a1a1a" stroke-width="1.5"/>
<line x1="600" y1="430" x2="650" y2="430" stroke="#1a1a1a" stroke-width="1.5"/>
<text x="655" y="415" font-size="11" fill="#1a1a1a">6"-P-1042-A1A-H</text>

<!-- Control valve station with bypass -->
<line x1="650" y1="430" x2="665" y2="430" stroke="#1a1a1a" stroke-width="1.5"/>
<rect x="665" y="421" width="30" height="18" fill="#d8d6cc" stroke="#5f5e5a" stroke-width="1"/>
<text x="680" y="415" font-size="10" text-anchor="middle" fill="#1a1a1a">BV-103</text>
<line x1="695" y1="430" x2="745" y2="430" stroke="#1a1a1a" stroke-width="1.5"/>

<rect x="745" y="421" width="30" height="18" fill="#d9cdf5" stroke="#53489c" stroke-width="1"/>
<rect x="750" y="393" width="20" height="20" fill="#d9cdf5" stroke="#53489c" stroke-width="1"/>
<line x1="760" y1="413" x2="760" y2="421" stroke="#1a1a1a" stroke-width="1.5"/>
<text x="760" y="480" font-size="11" text-anchor="middle" fill="#1a1a1a">FCV-1042</text>

<rect x="700" y="330" width="120" height="50" rx="6" fill="#d9cdf5" stroke="#53489c" stroke-width="1"/>
<text x="760" y="350" font-size="12" font-weight="bold" text-anchor="middle" fill="#3c3489">FIC-1042</text>
<text x="760" y="368" font-size="10" text-anchor="middle" fill="#3c3489">Flow Controller</text>
<line x1="760" y1="380" x2="760" y2="393" stroke="#53489c" stroke-width="1.2" stroke-dasharray="5 4"/>

<line x1="775" y1="430" x2="805" y2="430" stroke="#1a1a1a" stroke-width="1.5"/>
<rect x="805" y="421" width="30" height="18" fill="#d8d6cc" stroke="#5f5e5a" stroke-width="1"/>
<text x="820" y="415" font-size="10" text-anchor="middle" fill="#1a1a1a">BV-104</text>
<line x1="835" y1="430" x2="970" y2="430" stroke="#1a1a1a" stroke-width="1.5"/>

<!-- Bypass -->
<line x1="680" y1="439" x2="680" y2="470" stroke="#1a1a1a" stroke-width="1.5"/>
<line x1="680" y1="470" x2="712" y2="470" stroke="#1a1a1a" stroke-width="1.5"/>
<rect x="712" y="461" width="30" height="18" fill="#d8d6cc" stroke="#5f5e5a" stroke-width="1"/>
<line x1="742" y1="470" x2="820" y2="470" stroke="#1a1a1a" stroke-width="1.5"/>
<line x1="820" y1="470" x2="820" y2="439" stroke="#1a1a1a" stroke-width="1.5"/>
<text x="727" y="497" font-size="10" text-anchor="middle" fill="#1a1a1a">BV-105</text>
<text x="727" y="510" font-size="9" text-anchor="middle" fill="#5f5e5a">(car-sealed closed)</text>

<!-- V-200 -->
<rect x="970" y="360" width="240" height="140" rx="50" fill="#eaf3fb" stroke="#1a5f9e" stroke-width="1.5"/>
<text x="1090" y="415" font-size="15" font-weight="bold" text-anchor="middle" fill="#0c447c">V-200</text>
<text x="1090" y="433" font-size="12" text-anchor="middle" fill="#0c447c">Downstream Vessel</text>
<text x="1090" y="450" font-size="11" text-anchor="middle" fill="#0c447c">Design: 300 psig / 200°F</text>

<!-- PT-3002 -->
<circle cx="1060" cy="330" r="14" fill="#f9dfa3" stroke="#8a5a12" stroke-width="1"/>
<line x1="1060" y1="344" x2="1060" y2="360" stroke="#1a1a1a" stroke-width="1.5"/>
<text x="1005" y="326" font-size="11" text-anchor="end" fill="#1a1a1a">PT-3002</text>

<!-- PSV-201 -->
<line x1="1130" y1="70" x2="1130" y2="110" stroke="#1a1a1a" stroke-width="1.5"/>
<polygon points="1118,140 1142,140 1130,110" fill="#f6c9b8" stroke="#b5432a" stroke-width="1"/>
<line x1="1130" y1="140" x2="1130" y2="360" stroke="#1a1a1a" stroke-width="1.5"/>
<text x="1146" y="122" font-size="11" font-weight="bold" fill="#7a2a15">PSV-201</text>
<text x="1146" y="135" font-size="10" fill="#7a2a15">Set 300 psig</text>

<!-- LT-3006 bridle -->
<line x1="1195" y1="385" x2="1225" y2="385" stroke="#1a1a1a" stroke-width="1.5"/>
<line x1="1195" y1="455" x2="1225" y2="455" stroke="#1a1a1a" stroke-width="1.5"/>
<line x1="1225" y1="385" x2="1225" y2="455" stroke="#1a1a1a" stroke-width="1.5"/>
<circle cx="1225" cy="420" r="14" fill="#f9dfa3" stroke="#8a5a12" stroke-width="1"/>
<text x="1243" y="424" font-size="11" fill="#1a1a1a">LT-3006</text>

<!-- Line number format callout -->
<rect x="30" y="570" width="380" height="90" rx="8" fill="#f7f6f2" stroke="#888780" stroke-width="1"/>
<text x="45" y="592" font-size="12" font-weight="bold" fill="#1a1a1a">Line number format:</text>
<text x="45" y="612" font-size="12" fill="#1a1a1a">6" - P - 1042 - A1A - H</text>
<text x="45" y="630" font-size="10" fill="#5f5e5a">Size · Service (P=process) · Sequence · Piping class · Insulation</text>
<text x="45" y="648" font-size="10" fill="#5f5e5a">(H = hot insulation; see companion Line List Preparation guide)</text>

<!-- Legend -->
<rect x="440" y="570" width="460" height="200" rx="8" fill="#f7f6f2" stroke="#888780" stroke-width="1"/>
<text x="455" y="592" font-size="12" font-weight="bold" fill="#1a1a1a">Legend</text>

<line x1="455" y1="608" x2="495" y2="608" stroke="#1a1a1a" stroke-width="1.5"/>
<text x="505" y="612" font-size="11" fill="#1a1a1a">Process piping</text>

<line x1="455" y1="628" x2="495" y2="628" stroke="#53489c" stroke-width="1.2" stroke-dasharray="5 4"/>
<text x="505" y="632" font-size="11" fill="#1a1a1a">Electronic instrument signal (4–20 mA / HART)</text>

<rect x="465" y="640" width="20" height="14" fill="#d8d6cc" stroke="#5f5e5a" stroke-width="1"/>
<text x="505" y="652" font-size="11" fill="#1a1a1a">Manual gate / block valve</text>

<rect x="465" y="662" width="20" height="14" fill="#d9cdf5" stroke="#53489c" stroke-width="1"/>
<text x="505" y="674" font-size="11" fill="#1a1a1a">Control valve (with actuator/positioner)</text>

<rect x="465" y="684" width="20" height="14" fill="#cfe0f2" stroke="#185fa5" stroke-width="1"/>
<text x="505" y="696" font-size="11" fill="#1a1a1a">Check (non-return) valve</text>

<polygon points="465,720 485,720 475,704" fill="#f6c9b8" stroke="#b5432a" stroke-width="1"/>
<text x="505" y="718" font-size="11" fill="#1a1a1a">Pressure safety valve (PSV) / BDV</text>

<circle cx="475" cy="740" r="9" fill="#f9dfa3" stroke="#8a5a12" stroke-width="1"/>
<text x="505" y="744" font-size="11" fill="#1a1a1a">Field-mounted instrument</text>

<!-- Title block -->
<rect x="960" y="600" width="330" height="150" fill="none" stroke="#1a1a1a" stroke-width="1.5"/>
<line x1="960" y1="632" x2="1290" y2="632" stroke="#1a1a1a" stroke-width="1"/>
<line x1="960" y1="664" x2="1290" y2="664" stroke="#1a1a1a" stroke-width="1"/>
<line x1="960" y1="696" x2="1290" y2="696" stroke="#1a1a1a" stroke-width="1"/>
<text x="975" y="622" font-size="12" font-weight="bold" fill="#1a1a1a">TITLE: P&amp;ID — Pump Transfer System</text>
<text x="975" y="654" font-size="11" fill="#1a1a1a">DWG NO: P&amp;ID-102</text>
<text x="975" y="686" font-size="11" fill="#1a1a1a">REV: 3 — Issued for Construction (IFC)</text>
<text x="975" y="718" font-size="11" fill="#1a1a1a">NOTE: Illustrative example — study guide use only</text>
<text x="975" y="740" font-size="10" fill="#5f5e5a">Not for construction</text>
</svg>
